<?xml version="1.0" encoding="utf-8"?>
<!-- Generator: Adobe Illustrator 18.0.0, SVG Export Plug-In . SVG Version: 6.00 Build 0)  -->
<!DOCTYPE svg PUBLIC "-//W3C//DTD SVG 1.1//EN" "http://www.w3.org/Graphics/SVG/1.1/DTD/svg11.dtd">
<svg version="1.1" id="图层_1" xmlns="http://www.w3.org/2000/svg" xmlns:xlink="http://www.w3.org/1999/xlink" x="0px" y="0px"
	 viewBox="0 0 300 300" enable-background="new 0 0 300 300" xml:space="preserve">
<g>
	<polygon fill="#D65741" points="180.5,41.9 166,16.6 150.8,16.6 158.4,29.7 151.4,41.9 136.8,67.1 166,67.1 195.1,67.1 	"/>
	<polygon fill="#EDC552" points="150.8,16.6 165.4,41.9 180,67.1 150.8,67.1 121.7,67.1 136.3,41.9 	"/>
	<g>
		<path fill="#D65741" d="M108.2,142c0.9,0,1.6-0.7,1.6-1.6l0,0c0-0.9-0.7-1.6-1.6-1.6H70.5c-0.9,0-1.6,0.7-1.6,1.6l0,0
			c0,0.9,0.7,1.6,1.6,1.6H108.2z"/>
		<path fill="#3E4852" d="M68.9,148.8c-4.7,0-8.4-3.8-8.4-8.4c0-4.7,3.8-8.4,8.4-8.4c4.7,0,8.4,3.8,8.4,8.4
			C77.3,145,73.5,148.8,68.9,148.8z"/>
		<circle fill="#F0E6D9" cx="66" cy="142.2" r="3.4"/>
	</g>
	<rect x="82.6" y="135.4" fill="#1AA097" width="10.4" height="10"/>
	<rect x="87.8" y="127.3" fill="#747177" width="16" height="24.9"/>
	<rect x="115.1" y="214.9" fill="#EDC552" width="11.7" height="67.1"/>
	<rect x="183.2" y="214.9" fill="#EDC552" width="11.7" height="67.1"/>
	<path fill="#3E4852" d="M132.5,285c0-6.4-5.2-11.6-11.6-11.6c-6.4,0-11.6,5.2-11.6,11.6H132.5z"/>
	<path fill="#3E4852" d="M200.4,285c0-6.4-5.2-11.6-11.6-11.6c-6.4,0-11.6,5.2-11.6,11.6H200.4z"/>
	<rect x="95" y="62.5" fill="#1AA097" width="98.4" height="163.7"/>
	<circle fill="#F0E6D9" cx="143.3" cy="102.2" r="8.4"/>
	<path fill="#F0E6D9" d="M143.2,93.8c-4.6,0.1-8.4,3.9-8.3,8.5c0.1,4.6,3.9,8.4,8.5,8.3L143.2,93.8z"/>
	<path fill="#3E4852" d="M143.2,93.8c-4.6,0.1-8.4,3.9-8.3,8.5c0.1,4.6,3.9,8.4,8.5,8.3L143.2,93.8z"/>
	<circle fill="#F0E6D9" cx="143.3" cy="131.9" r="8.4"/>
	<path fill="#D65741" d="M143.2,123.5c-4.6,0.1-8.4,3.9-8.3,8.5c0.1,4.6,3.9,8.4,8.5,8.3L143.2,123.5z"/>
	<circle fill="#F0E6D9" cx="143.3" cy="161.6" r="8.4"/>
	<path fill="#EDC552" d="M143.2,153.3c-4.6,0.1-8.4,3.9-8.3,8.5c0.1,4.6,3.9,8.4,8.5,8.3L143.2,153.3z"/>
	<path fill="#D65741" d="M179.4,198.5c0,5.1-4.1,9.2-9.2,9.2h-51.4c-5.1,0-9.2-4.1-9.2-9.2l0,0c0-5.1,4.1-9.2,9.2-9.2h51.4
		C175.2,189.3,179.4,193.4,179.4,198.5L179.4,198.5z"/>
	<path fill="#F0E6D9" d="M156.8,194.5h-12.3h-12.3h-12.3v2c0,3.4,2.8,6.2,6.2,6.2c3.4,0,6.2-2.8,6.2-6.2c0,3.4,2.8,6.2,6.2,6.2
		c3.4,0,6.2-2.8,6.2-6.2c0,3.4,2.8,6.2,6.2,6.2c3.4,0,6.2-2.8,6.2-6.2c0,3.4,2.8,6.2,6.2,6.2c3.4,0,6.2-2.8,6.2-6.2v-2H156.8z"/>
	<path fill="#EDC552" d="M154.6,212c0,0.7-0.6,1.2-1.2,1.2h-16.8c-0.7,0-1.2-0.6-1.2-1.2l0,0c0-0.7,0.6-1.2,1.2-1.2h16.8
		C154.1,210.8,154.6,211.4,154.6,212L154.6,212z"/>
	<rect x="193.4" y="62.5" fill="#3E4852" width="26.9" height="163.7"/>
	<g>
		<path fill="#D65741" d="M199.1,142c-0.9,0-1.6-0.7-1.6-1.6l0,0c0-0.9,0.7-1.6,1.6-1.6h31.5c0.9,0,1.6,0.7,1.6,1.6l0,0
			c0,0.9-0.7,1.6-1.6,1.6H199.1z"/>
		<path fill="#3E4852" d="M232.2,148.8c4.7,0,8.4-3.8,8.4-8.4c0-4.7-3.8-8.4-8.4-8.4c-4.7,0-8.4,3.8-8.4,8.4
			C223.8,145,227.6,148.8,232.2,148.8z"/>
		<circle fill="#F0E6D9" cx="235.1" cy="142.2" r="3.4"/>
	</g>
	<rect x="209.7" y="135.4" fill="#EDC552" width="10.4" height="10"/>
	<rect x="200.3" y="127.3" fill="#D65741" width="16" height="24.9"/>
	<rect x="208.3" y="135.4" fill="#1AA097" width="10.4" height="10"/>
	<rect x="197.5" y="127.3" fill="#747177" width="16" height="24.9"/>
	<g>
		
			<rect x="144.8" y="40.4" transform="matrix(-0.7072 -0.7071 0.7071 -0.7072 224.678 185.8327)" fill="#F0E6D9" width="12" height="12"/>
		<polygon fill="#3E4852" points="150.8,46.4 150.8,54.9 159.3,46.4 150.8,37.9 		"/>
	</g>
</g>
</svg>
