<?xml version="1.0" encoding="utf-8"?>
<!-- Generator: Adobe Illustrator 18.0.0, SVG Export Plug-In . SVG Version: 6.00 Build 0)  -->
<!DOCTYPE svg PUBLIC "-//W3C//DTD SVG 1.1//EN" "http://www.w3.org/Graphics/SVG/1.1/DTD/svg11.dtd">
<svg version="1.1" id="图层_1" xmlns="http://www.w3.org/2000/svg" xmlns:xlink="http://www.w3.org/1999/xlink" x="0px" y="0px"
	 viewBox="0 0 300 300" enable-background="new 0 0 300 300" xml:space="preserve">
<g>
	<g>
		<path fill="#747177" d="M152.6,239.7v-12.3h-4.9v12.2c-10.1,1.2-18,9.8-18,20.3c0,0.9,0.8,1.7,1.7,1.7h6.3c0.9,0,1.7-0.8,1.7-1.7
			c0-0.9-0.8-1.7-1.7-1.7h-3.3c0.9-7.9,7.5-14,15.7-14c8.1,0,14.8,6.2,15.7,14h-3.3c-0.9,0-1.7,0.8-1.7,1.7c0,0.9,0.8,1.7,1.7,1.7
			h6.3c0.9,0,1.7-0.8,1.7-1.7C170.5,249.5,162.7,240.9,152.6,239.7z"/>
		<path fill="#D65741" d="M160.9,229.6c0,2.9-2.3,5.3-5.3,5.3h-11.1c-2.9,0-5.3-2.4-5.3-5.3v-1.6c0-2.9,2.4-5.3,5.3-5.3h11.1
			c2.9,0,5.3,2.4,5.3,5.3V229.6z"/>
		<path fill="#1AA097" d="M171.8,218.3c0,5.8-4.7,10.5-10.5,10.5h-22.4c-5.8,0-10.5-4.7-10.5-10.5v-3.1c0-5.8,4.7-10.5,10.5-10.5
			h22.4c5.8,0,10.5,4.7,10.5,10.5V218.3z"/>
		<path fill="#3E4852" d="M161.4,266.7c0,5.8-4.7,10.5-10.5,10.5h-1.6c-5.8,0-10.5-4.7-10.5-10.5v-8.2c0-5.8,4.7-10.5,10.5-10.5h1.6
			c5.8,0,10.5,4.7,10.5,10.5V266.7z"/>
	</g>
	<path fill="#EDC552" d="M198.3,170.4c0,26.4-21.4,47.8-47.8,47.8l0,0c-26.4,0-47.8-21.4-47.8-47.8V77c0-26.4,21.4-47.8,47.8-47.8
		l0,0c26.4,0,47.8,21.4,47.8,47.8V170.4z"/>
	<path fill="#D65741" d="M205.4,74c0,8.9-24.3,18-54.9,18c-30.6,0-55.8-9-55.8-18s24.8-16.2,55.3-16.2
		C180.6,57.8,205.4,65.1,205.4,74z"/>
	<path fill="#A2CBC5" d="M198.1,71.7c0-26.3-21.3-47.6-47.6-47.6c-26.3,0-47.6,21.3-47.6,47.6c0,0,19.8,11.2,47.6,11.2
		C176.9,82.9,198.1,71.7,198.1,71.7z"/>
	
		<ellipse transform="matrix(0.7812 -0.6243 0.6243 0.7812 9.0863 120.0408)" fill="#D3E6E3" cx="175.8" cy="47.1" rx="7.3" ry="16.6"/>
	<g>
		<path fill="#F0E6D9" d="M155.8,128.2c3.2-3.2,3.2-8.3,0-11.5c-3.2-3.2-8.3-3.2-11.5,0c-3.2,3.2-3.2,8.3,0,11.5
			C147.5,131.4,152.6,131.4,155.8,128.2z"/>
		<path fill="#D65741" d="M155.8,116.8c-3.2-3.2-8.3-3.2-11.5,0c-3.2,3.2-3.2,8.3,0,11.5L155.8,116.8z"/>
	</g>
	<g>
		<circle fill="#F0E6D9" cx="150.6" cy="148.2" r="8.1"/>
		<path fill="#1AA097" d="M156.3,142.5c-3.2-3.2-8.3-3.2-11.5,0c-3.2,3.2-3.2,8.3,0,11.5L156.3,142.5z"/>
	</g>
	<g>
		<path fill="#3E4852" d="M189.3,180.5c0,5.2-4.2,9.4-9.4,9.4h-58.7c-5.2,0-9.4-4.2-9.4-9.4l0,0c0-5.2,4.2-9.4,9.4-9.4h58.7
			C185.1,171.2,189.3,175.4,189.3,180.5L189.3,180.5z"/>
		<g>
			<path fill="#F0E6D9" d="M181.9,182.5h-62.7c-1.1,0-2-0.9-2-2c0-1.1,0.9-2,2-2h62.7c1.1,0,2,0.9,2,2
				C183.9,181.6,183,182.5,181.9,182.5z"/>
		</g>
		<path fill="#D65741" d="M165.7,181v10.9c0,3.9,3.1,7,7,7c3.9,0,7-3.1,7-7V181H165.7z"/>
	</g>
	<g>
		<path fill="#3E4852" d="M198.3,108.5c17.4,0,31.6,14.2,31.6,31.6c0,17.4-14.2,31.6-31.6,31.6v-11.1c11.3,0,20.5-9.2,20.5-20.5
			c0-11.3-9.2-20.5-20.5-20.5V108.5z"/>
	</g>
	<g>
		<path fill="#3E4852" d="M102.8,171.7c-17.4,0-31.6-14.2-31.6-31.6c0-17.4,14.2-31.6,31.6-31.6v11.1c-11.3,0-20.5,9.2-20.5,20.5
			c0,11.3,9.2,20.5,20.5,20.5V171.7z"/>
	</g>
</g>
</svg>
