<?xml version="1.0" encoding="utf-8"?>
<!-- Generator: Adobe Illustrator 18.0.0, SVG Export Plug-In . SVG Version: 6.00 Build 0)  -->
<!DOCTYPE svg PUBLIC "-//W3C//DTD SVG 1.1//EN" "http://www.w3.org/Graphics/SVG/1.1/DTD/svg11.dtd">
<svg version="1.1" id="图层_1" xmlns="http://www.w3.org/2000/svg" xmlns:xlink="http://www.w3.org/1999/xlink" x="0px" y="0px"
	 viewBox="0 0 300 300" enable-background="new 0 0 300 300" xml:space="preserve">
<g>
	<path fill="#D65741" d="M161,25.7l-9.8-9.8c-0.7-0.7-1.8-0.7-2.5,0l-9.8,9.8c-0.7,0.7-0.7,1.8,0,2.4l9.3,9.3v17.4
		c0,1,0.8,1.7,1.7,1.7c1,0,1.7-0.8,1.7-1.7V37.5l9.3-9.3C161.7,27.5,161.7,26.4,161,25.7z M151.7,32.6v-3.1c0-1-0.8-1.7-1.7-1.7
		c-1,0-1.7,0.8-1.7,1.7v3.1l-5.6-5.6l7.3-7.3l7.3,7.3L151.7,32.6z"/>
	<path fill="#A2CBC5" d="M180.3,192.7c0,14.6-11.9,26.5-26.5,26.5h-7.7c-14.6,0-26.5-11.9-26.5-26.5V70.1
		c0-14.6,11.9-26.5,26.5-26.5h7.7c14.6,0,26.5,11.9,26.5,26.5V192.7z"/>
	<rect x="147.9" y="87" fill="#EDC552" width="4.3" height="83.8"/>
	<ellipse transform="matrix(0.7854 -0.619 0.619 0.7854 -2.398 115.0062)" fill="#D3E6E3" cx="164.7" cy="61" rx="5.9" ry="15.1"/>
	<g>
		<circle fill="#D65741" cx="150" cy="99.3" r="7.7"/>
		<path fill="#3E4852" d="M144.5,93.8c-3,3-3,7.9,0,10.9c3,3,7.9,3,10.9,0L144.5,93.8z"/>
	</g>
	<g>
		<circle fill="#D65741" cx="150" cy="128.9" r="7.7"/>
		<path fill="#3E4852" d="M144.5,123.4c-3,3-3,7.9,0,10.9c3,3,7.9,3,10.9,0L144.5,123.4z"/>
	</g>
	<polygon fill="#EDC552" points="150,244.7 111.7,266.5 111.7,275 150,275 188.3,275 188.3,266.5 	"/>
	<g>
		<path fill="#3E4852" d="M117.2,273.5c0,6.5-5.2,11.7-11.7,11.7h-1.8c-6.5,0-11.7-5.2-11.7-11.7v-9.1c0-6.5,5.2-11.7,11.7-11.7h1.8
			c6.5,0,11.7,5.2,11.7,11.7V273.5z"/>
		<path fill="#3E4852" d="M208,273.5c0,6.5-5.2,11.7-11.7,11.7h-1.8c-6.5,0-11.7-5.2-11.7-11.7v-9.1c0-6.5,5.2-11.7,11.7-11.7h1.8
			c6.5,0,11.7,5.2,11.7,11.7V273.5z"/>
	</g>
	<path fill="#EDC552" d="M79.5,224.6v-23.4h-5v23.4c-5.6,1.2-9.8,6.1-9.8,12.1c0,2.8,1,5.6,2.8,7.8l3.5-2.8c-1.2-1.4-1.8-3.1-1.8-5
		c0-4.3,3.5-7.8,7.8-7.8c4.3,0,7.8,3.5,7.8,7.8c0,1.9-0.7,3.7-1.9,5.1l3.4,2.9c1.9-2.2,3-5.1,3-8C89.3,230.8,85.1,225.8,79.5,224.6z
		"/>
	<path fill="#EDC552" d="M225.6,224.6v-23.4h-5v23.4c-5.6,1.2-9.8,6.1-9.8,12.1c0,2.8,1,5.6,2.8,7.8l3.5-2.8c-1.2-1.4-1.8-3.1-1.8-5
		c0-4.3,3.5-7.8,7.8-7.8c4.3,0,7.8,3.5,7.8,7.8c0,1.9-0.7,3.7-1.9,5.1l3.4,2.9c1.9-2.2,3-5.1,3-8
		C235.4,230.8,231.2,225.8,225.6,224.6z"/>
	<g>
		<path fill="#1AA097" d="M236.7,201.7c0,3.8-3.1,6.8-6.8,6.8l0,0c-3.8,0-6.8-3.1-6.8-6.8v-7.3c0-3.8,3.1-6.8,6.8-6.8l0,0
			c3.8,0,6.8,3.1,6.8,6.8V201.7z"/>
		<path fill="#1AA097" d="M77,201.7c0,3.8-3.1,6.8-6.8,6.8l0,0c-3.8,0-6.8-3.1-6.8-6.8v-7.3c0-3.8,3.1-6.8,6.8-6.8l0,0
			c3.8,0,6.8,3.1,6.8,6.8V201.7z"/>
		<rect x="77" y="194.6" fill="#EDC552" width="148.3" height="6.5"/>
		<path fill="#D65741" d="M232.4,205.2c0,5.2-4.2,9.3-9.3,9.3l0,0c-5.2,0-9.3-4.2-9.3-9.3v-14.3c0-5.1,4.2-9.3,9.3-9.3l0,0
			c5.1,0,9.3,4.2,9.3,9.3V205.2z"/>
		<path fill="#D65741" d="M86.3,205.2c0,5.2-4.2,9.3-9.3,9.3l0,0c-5.1,0-9.3-4.2-9.3-9.3v-14.3c0-5.1,4.2-9.3,9.3-9.3l0,0
			c5.2,0,9.3,4.2,9.3,9.3V205.2z"/>
	</g>
	<path fill="#3E4852" d="M209,231.9c0,8.9-7.2,16.1-16.1,16.1H107c-8.9,0-16.1-7.2-16.1-16.1v-55.5c0-8.9,7.2-16.1,16.1-16.1H193
		c8.9,0,16.1,7.2,16.1,16.1V231.9z"/>
	<rect x="111.3" y="182.7" fill="#1AA097" width="79.5" height="42.9"/>
	<path fill="#F0E6D9" d="M172.7,213.9c-0.3,0-0.6-0.1-0.8-0.3c-5.4-5.4-12.6-8.4-20.3-8.4c-7.7,0-14.9,3-20.3,8.4
		c-0.2,0.2-0.5,0.3-0.8,0.3c-0.3,0-0.6-0.1-0.8-0.3l-7-7c-0.2-0.2-0.3-0.5-0.3-0.8c0-0.3,0.1-0.6,0.3-0.8c7.7-7.7,18-12,28.9-12
		c10.9,0,21.2,4.2,28.9,12c0.2,0.2,0.3,0.5,0.3,0.8c0,0.3-0.1,0.6-0.3,0.8l-7,7C173.3,213.8,173,213.9,172.7,213.9z"/>
	<path fill="#EDC552" d="M189.3,186.6c0-1.1-0.9-1.9-1.9-1.9c-1.1,0-1.9,0.9-1.9,1.9c0,1.1,0.9,1.9,1.9,1.9
		C188.4,188.5,189.3,187.7,189.3,186.6z"/>
	<path fill="#EDC552" d="M189.3,221.4c0-1.1-0.9-1.9-1.9-1.9c-1.1,0-1.9,0.9-1.9,1.9s0.9,1.9,1.9,1.9
		C188.4,223.3,189.3,222.5,189.3,221.4z"/>
	<path fill="#EDC552" d="M117.4,186.6c0-1.1-0.9-1.9-1.9-1.9c-1.1,0-1.9,0.9-1.9,1.9c0,1.1,0.9,1.9,1.9,1.9
		C116.5,188.5,117.4,187.7,117.4,186.6z"/>
	<path fill="#EDC552" d="M117.4,221.4c0-1.1-0.9-1.9-1.9-1.9c-1.1,0-1.9,0.9-1.9,1.9s0.9,1.9,1.9,1.9
		C116.5,223.3,117.4,222.5,117.4,221.4z"/>
	<circle fill="#D65741" cx="145.2" cy="217.1" r="4.3"/>
	<circle fill="#D65741" cx="158.1" cy="217.1" r="4.3"/>
	<path fill="#D65741" d="M140.1,207.1c0.2,0.4,0,0.8-0.3,1l0,0c-0.3,0.2-0.8,0-0.9-0.3l-2.8-5.6c-0.2-0.3,0-0.8,0.3-0.9l0,0
		c0.4-0.2,0.8,0,0.9,0.3L140.1,207.1z"/>
	<path fill="#3E4852" d="M181.3,204.1c-7.9-7.9-18.5-12.3-29.7-12.3v2.3v-2.3c-11.2,0-21.8,4.4-29.7,12.3c-0.4,0.4-0.7,1-0.7,1.6
		c0,0.6,0.2,1.2,0.7,1.6l7,7c0.5,0.5,1,0.7,1.6,0.7c0.6,0,1.2-0.2,1.6-0.7c5.2-5.2,12.1-8.1,19.5-8.1c7.4,0,14.3,2.9,19.5,8.1
		c0.5,0.5,1,0.7,1.6,0.7c0.6,0,1.2-0.2,1.6-0.7l7-7c0.4-0.4,0.7-1,0.7-1.6C182,205.2,181.8,204.6,181.3,204.1z M172.7,212.7
		c-5.8-5.8-13.5-8.7-21.1-8.7c-7.6,0-15.3,2.9-21.1,8.7l-7-7c7.7-7.7,17.9-11.6,28.1-11.6c10.2,0,20.3,3.9,28.1,11.6L172.7,212.7z"
		/>
</g>
</svg>
